<svg width="2025" height="768" viewBox="0 0 2025 768" fill="none" xmlns="http://www.w3.org/2000/svg">
<g clip-path="url(#clip0_522_1352)">
<rect width="2025" height="768" fill="white"/>
<path d="M0 12C0 5.37258 5.37258 0 12 0H2013C2019.63 0 2025 5.37258 2025 12V759C2025 765.627 2019.63 771 2013 771H12.0001C5.37264 771 0 765.627 0 759V12Z" fill="url(#paint0_linear_522_1352)"/>
<path d="M777.7 560.75C774.367 560.75 771.367 559.95 768.7 558.35C766.067 556.717 764 554.5 762.5 551.7C761 548.9 760.25 545.783 760.25 542.35C760.25 539.017 761 535.983 762.5 533.25C764 530.483 766.067 528.3 768.7 526.7C771.367 525.1 774.367 524.3 777.7 524.3C780.933 524.3 783.85 525.067 786.45 526.6C789.05 528.1 791.1 530.167 792.6 532.8L788.45 535.4C787.517 533.667 786.117 532.217 784.25 531.05C782.417 529.85 780.267 529.25 777.8 529.25C775.6 529.25 773.567 529.8 771.7 530.9C769.867 531.967 768.4 533.483 767.3 535.45C766.2 537.417 765.65 539.7 765.65 542.3C765.65 544.967 766.2 547.317 767.3 549.35C768.4 551.383 769.867 552.967 771.7 554.1C773.567 555.2 775.6 555.75 777.8 555.75C780.1 555.75 782.133 555.2 783.9 554.1C785.7 553 787.217 551.533 788.45 549.7L792.65 552.3C791.117 554.9 789.033 556.967 786.4 558.5C783.8 560 780.9 560.75 777.7 560.75ZM804.07 533.5V536.75C804.903 535.35 806.203 534.333 807.97 533.7C809.737 533.067 811.787 532.75 814.12 532.75V537.5C812.12 537.5 810.37 537.783 808.87 538.35C807.37 538.883 806.203 539.65 805.37 540.65C804.537 541.617 804.12 542.733 804.12 544V560H799.07V533.5H804.07ZM829.591 560.75C827.091 560.75 824.808 560.133 822.741 558.9C820.708 557.633 819.091 555.933 817.891 553.8C816.724 551.633 816.141 549.233 816.141 546.6C816.141 544.033 816.741 541.7 817.941 539.6C819.141 537.5 820.774 535.85 822.841 534.65C824.908 533.417 827.191 532.8 829.691 532.8C832.458 532.8 834.808 533.383 836.741 534.55C838.708 535.683 840.191 537.267 841.191 539.3C842.224 541.333 842.741 543.667 842.741 546.3C842.741 546.9 842.674 547.833 842.541 549.1L821.291 549.15C821.624 550.55 822.224 551.767 823.091 552.8C823.991 553.8 825.024 554.567 826.191 555.1C827.358 555.633 828.508 555.9 829.641 555.9C831.374 555.9 832.924 555.583 834.291 554.95C835.691 554.283 836.824 553.417 837.691 552.35L841.641 554.9C840.474 556.867 838.841 558.333 836.741 559.3C834.674 560.267 832.291 560.75 829.591 560.75ZM837.791 544.7C837.424 542.633 836.508 540.933 835.041 539.6C833.608 538.267 831.841 537.6 829.741 537.6C828.408 537.6 827.124 537.9 825.891 538.5C824.691 539.067 823.658 539.9 822.791 541C821.958 542.067 821.458 543.3 821.291 544.7H837.791ZM875.025 533.5V560H869.875V555.85C867.408 559.083 864.192 560.7 860.225 560.7C857.758 560.7 855.508 560.083 853.475 558.85C851.475 557.583 849.892 555.867 848.725 553.7C847.558 551.533 846.975 549.133 846.975 546.5C846.975 544 847.558 541.7 848.725 539.6C849.892 537.5 851.475 535.85 853.475 534.65C855.508 533.417 857.758 532.8 860.225 532.8C864.225 532.8 867.442 534.367 869.875 537.5V533.5H875.025ZM861.225 555.95C862.892 555.95 864.392 555.533 865.725 554.7C867.092 553.833 868.158 552.683 868.925 551.25C869.692 549.817 870.075 548.25 870.075 546.55C870.075 544.983 869.692 543.517 868.925 542.15C868.158 540.75 867.108 539.633 865.775 538.8C864.442 537.967 862.925 537.55 861.225 537.55C859.425 537.55 857.825 537.967 856.425 538.8C855.058 539.633 853.992 540.733 853.225 542.1C852.458 543.467 852.075 544.917 852.075 546.45C852.075 548.183 852.458 549.783 853.225 551.25C853.992 552.683 855.058 553.833 856.425 554.7C857.825 555.533 859.425 555.95 861.225 555.95ZM898.583 560.4C897.483 560.533 896.366 560.6 895.233 560.6C892.099 560.6 889.866 559.9 888.533 558.5C887.199 557.1 886.533 554.9 886.533 551.9V538.1H880.883V533.5H886.533V528.2L891.433 526.7V533.5H898.583V538.1H891.433V551.9C891.433 554.667 893.233 556.05 896.833 556.05C897.133 556.05 897.716 556.017 898.583 555.95V560.4ZM916.136 560.75C913.636 560.75 911.353 560.133 909.286 558.9C907.253 557.633 905.636 555.933 904.436 553.8C903.269 551.633 902.686 549.233 902.686 546.6C902.686 544.033 903.286 541.7 904.486 539.6C905.686 537.5 907.319 535.85 909.386 534.65C911.453 533.417 913.736 532.8 916.236 532.8C919.003 532.8 921.353 533.383 923.286 534.55C925.253 535.683 926.736 537.267 927.736 539.3C928.769 541.333 929.286 543.667 929.286 546.3C929.286 546.9 929.219 547.833 929.086 549.1L907.836 549.15C908.169 550.55 908.769 551.767 909.636 552.8C910.536 553.8 911.569 554.567 912.736 555.1C913.903 555.633 915.053 555.9 916.186 555.9C917.919 555.9 919.469 555.583 920.836 554.95C922.236 554.283 923.369 553.417 924.236 552.35L928.186 554.9C927.019 556.867 925.386 558.333 923.286 559.3C921.219 560.267 918.836 560.75 916.136 560.75ZM924.336 544.7C923.969 542.633 923.053 540.933 921.586 539.6C920.153 538.267 918.386 537.6 916.286 537.6C914.953 537.6 913.669 537.9 912.436 538.5C911.236 539.067 910.203 539.9 909.336 541C908.503 542.067 908.003 543.3 907.836 544.7H924.336ZM947.834 533.5H952.634L959.134 553.9L965.234 533.5H971.084L977.234 553.9L983.734 533.5H988.484L980.134 560H974.284L968.184 539.7L962.034 560H956.184L947.834 533.5ZM993.765 523.65H999.015V528.4H993.765V523.65ZM993.865 533.5H998.915V560H993.865V533.5ZM1022.63 560.4C1021.53 560.533 1020.41 560.6 1019.28 560.6C1016.14 560.6 1013.91 559.9 1012.58 558.5C1011.24 557.1 1010.58 554.9 1010.58 551.9V538.1H1004.93V533.5H1010.58V528.2L1015.48 526.7V533.5H1022.63V538.1H1015.48V551.9C1015.48 554.667 1017.28 556.05 1020.88 556.05C1021.18 556.05 1021.76 556.017 1022.63 555.95V560.4ZM1033.43 524.3V537.35C1034.3 535.917 1035.48 534.8 1036.98 534C1038.51 533.2 1040.28 532.8 1042.28 532.8C1044.08 532.8 1045.73 533.25 1047.23 534.15C1048.76 535.017 1049.98 536.233 1050.88 537.8C1051.78 539.333 1052.23 541.033 1052.23 542.9V560H1047.08V544.7C1047.08 542.733 1046.5 541.083 1045.33 539.75C1044.16 538.417 1042.58 537.75 1040.58 537.75C1039.28 537.75 1038.1 538.1 1037.03 538.8C1036 539.5 1035.16 540.45 1034.53 541.65C1033.93 542.817 1033.63 544.1 1033.63 545.5V560H1028.53V524.3H1033.43ZM1278.79 553.6H1284.54L1280.44 566.25H1276.29L1278.79 553.6ZM1324.77 560.75C1321.44 560.75 1318.44 559.95 1315.77 558.35C1313.14 556.717 1311.07 554.5 1309.57 551.7C1308.07 548.9 1307.32 545.783 1307.32 542.35C1307.32 539.017 1308.07 535.983 1309.57 533.25C1311.07 530.483 1313.14 528.3 1315.77 526.7C1318.44 525.1 1321.44 524.3 1324.77 524.3C1328.01 524.3 1330.92 525.067 1333.52 526.6C1336.12 528.1 1338.17 530.167 1339.67 532.8L1335.52 535.4C1334.59 533.667 1333.19 532.217 1331.32 531.05C1329.49 529.85 1327.34 529.25 1324.87 529.25C1322.67 529.25 1320.64 529.8 1318.77 530.9C1316.94 531.967 1315.47 533.483 1314.37 535.45C1313.27 537.417 1312.72 539.7 1312.72 542.3C1312.72 544.967 1313.27 547.317 1314.37 549.35C1315.47 551.383 1316.94 552.967 1318.77 554.1C1320.64 555.2 1322.67 555.75 1324.87 555.75C1327.17 555.75 1329.21 555.2 1330.97 554.1C1332.77 553 1334.29 551.533 1335.52 549.7L1339.72 552.3C1338.19 554.9 1336.11 556.967 1333.47 558.5C1330.87 560 1327.97 560.75 1324.77 560.75ZM1346.14 524.35H1351.19V560H1346.14V524.35ZM1385.26 533.5V560H1380.11V555.85C1377.64 559.083 1374.43 560.7 1370.46 560.7C1367.99 560.7 1365.74 560.083 1363.71 558.85C1361.71 557.583 1360.13 555.867 1358.96 553.7C1357.79 551.533 1357.21 549.133 1357.21 546.5C1357.21 544 1357.79 541.7 1358.96 539.6C1360.13 537.5 1361.71 535.85 1363.71 534.65C1365.74 533.417 1367.99 532.8 1370.46 532.8C1374.46 532.8 1377.68 534.367 1380.11 537.5V533.5H1385.26ZM1371.46 555.95C1373.13 555.95 1374.63 555.533 1375.96 554.7C1377.33 553.833 1378.39 552.683 1379.16 551.25C1379.93 549.817 1380.31 548.25 1380.31 546.55C1380.31 544.983 1379.93 543.517 1379.16 542.15C1378.39 540.75 1377.34 539.633 1376.01 538.8C1374.68 537.967 1373.16 537.55 1371.46 537.55C1369.66 537.55 1368.06 537.967 1366.66 538.8C1365.29 539.633 1364.23 540.733 1363.46 542.1C1362.69 543.467 1362.31 544.917 1362.31 546.45C1362.31 548.183 1362.69 549.783 1363.46 551.25C1364.23 552.683 1365.29 553.833 1366.66 554.7C1368.06 555.533 1369.66 555.95 1371.46 555.95ZM1398.02 533.5V536.75C1398.85 535.35 1400.15 534.333 1401.92 533.7C1403.68 533.067 1405.73 532.75 1408.07 532.75V537.5C1406.07 537.5 1404.32 537.783 1402.82 538.35C1401.32 538.883 1400.15 539.65 1399.32 540.65C1398.48 541.617 1398.07 542.733 1398.07 544V560H1393.02V533.5H1398.02ZM1413.89 523.65H1419.14V528.4H1413.89V523.65ZM1413.99 533.5H1419.04V560H1413.99V533.5ZM1442.75 560.4C1441.65 560.533 1440.53 560.6 1439.4 560.6C1436.27 560.6 1434.03 559.9 1432.7 558.5C1431.37 557.1 1430.7 554.9 1430.7 551.9V538.1H1425.05V533.5H1430.7V528.2L1435.6 526.7V533.5H1442.75V538.1H1435.6V551.9C1435.6 554.667 1437.4 556.05 1441 556.05C1441.3 556.05 1441.88 556.017 1442.75 555.95V560.4ZM1458.3 558.6L1446.15 533.5H1451.25L1460.85 553.4L1469.6 533.5H1474.6L1457.65 572H1452.45L1458.3 558.6ZM1510.64 528.5C1509.57 528.167 1508.64 528 1507.84 528C1505.07 528 1503.67 529.833 1503.64 533.5H1510.64V538.25H1503.64V560H1498.64V538.25H1493.19V533.5H1498.64C1498.77 530 1499.47 527.467 1500.74 525.9C1502.01 524.3 1504.16 523.5 1507.19 523.5C1508.46 523.5 1509.61 523.583 1510.64 523.75V528.5ZM1521.64 533.5V536.75C1522.48 535.35 1523.78 534.333 1525.54 533.7C1527.31 533.067 1529.36 532.75 1531.69 532.75V537.5C1529.69 537.5 1527.94 537.783 1526.44 538.35C1524.94 538.883 1523.78 539.65 1522.94 540.65C1522.11 541.617 1521.69 542.733 1521.69 544V560H1516.64V533.5H1521.64ZM1547.37 560.8C1544.83 560.8 1542.52 560.167 1540.42 558.9C1538.35 557.633 1536.72 555.917 1535.52 553.75C1534.32 551.55 1533.72 549.133 1533.72 546.5C1533.72 544 1534.32 541.7 1535.52 539.6C1536.72 537.467 1538.35 535.783 1540.42 534.55C1542.52 533.317 1544.83 532.7 1547.37 532.7C1549.9 532.7 1552.2 533.317 1554.27 534.55C1556.37 535.783 1558.02 537.45 1559.22 539.55C1560.42 541.65 1561.02 543.967 1561.02 546.5C1561.02 549.133 1560.42 551.55 1559.22 553.75C1558.02 555.917 1556.37 557.633 1554.27 558.9C1552.2 560.167 1549.9 560.8 1547.37 560.8ZM1547.37 556.05C1549.13 556.05 1550.65 555.617 1551.92 554.75C1553.22 553.85 1554.2 552.667 1554.87 551.2C1555.53 549.733 1555.87 548.15 1555.87 546.45C1555.87 544.917 1555.53 543.467 1554.87 542.1C1554.2 540.7 1553.22 539.583 1551.92 538.75C1550.65 537.883 1549.13 537.45 1547.37 537.45C1545.63 537.45 1544.12 537.883 1542.82 538.75C1541.52 539.583 1540.52 540.7 1539.82 542.1C1539.15 543.467 1538.82 544.917 1538.82 546.45C1538.82 548.15 1539.15 549.733 1539.82 551.2C1540.52 552.667 1541.52 553.85 1542.82 554.75C1544.12 555.617 1545.63 556.05 1547.37 556.05ZM1571.88 533.5V537.35C1573.72 534.283 1576.47 532.75 1580.13 532.75C1581.8 532.75 1583.33 533.2 1584.73 534.1C1586.13 534.967 1587.3 536.117 1588.23 537.55C1589.07 536.183 1590.33 535.05 1592.03 534.15C1593.73 533.217 1595.57 532.75 1597.53 532.75C1599.33 532.75 1600.97 533.2 1602.43 534.1C1603.93 534.967 1605.1 536.183 1605.93 537.75C1606.8 539.283 1607.23 541 1607.23 542.9V560H1602.13V544.7C1602.13 542.667 1601.62 541 1600.58 539.7C1599.55 538.4 1598.02 537.75 1595.98 537.75C1594.18 537.75 1592.67 538.467 1591.43 539.9C1590.23 541.3 1589.63 543.167 1589.63 545.5V560H1584.53V544.7C1584.53 542.667 1584 541 1582.93 539.7C1581.9 538.4 1580.4 537.75 1578.43 537.75C1576.5 537.75 1574.95 538.5 1573.78 540C1572.65 541.467 1572.08 543.3 1572.08 545.5V560H1566.98V533.5H1571.88ZM1645.83 560.75C1642.5 560.75 1639.5 559.95 1636.83 558.35C1634.2 556.717 1632.13 554.5 1630.63 551.7C1629.13 548.9 1628.38 545.783 1628.38 542.35C1628.38 539.017 1629.13 535.983 1630.63 533.25C1632.13 530.483 1634.2 528.3 1636.83 526.7C1639.5 525.1 1642.5 524.3 1645.83 524.3C1649.06 524.3 1651.98 525.067 1654.58 526.6C1657.18 528.1 1659.23 530.167 1660.73 532.8L1656.58 535.4C1655.65 533.667 1654.25 532.217 1652.38 531.05C1650.55 529.85 1648.4 529.25 1645.93 529.25C1643.73 529.25 1641.7 529.8 1639.83 530.9C1638 531.967 1636.53 533.483 1635.43 535.45C1634.33 537.417 1633.78 539.7 1633.78 542.3C1633.78 544.967 1634.33 547.317 1635.43 549.35C1636.53 551.383 1638 552.967 1639.83 554.1C1641.7 555.2 1643.73 555.75 1645.93 555.75C1648.23 555.75 1650.26 555.2 1652.03 554.1C1653.83 553 1655.35 551.533 1656.58 549.7L1660.78 552.3C1659.25 554.9 1657.16 556.967 1654.53 558.5C1651.93 560 1649.03 560.75 1645.83 560.75ZM1672.1 524.3V537.35C1672.97 535.917 1674.15 534.8 1675.65 534C1677.18 533.2 1678.95 532.8 1680.95 532.8C1682.75 532.8 1684.4 533.25 1685.9 534.15C1687.43 535.017 1688.65 536.233 1689.55 537.8C1690.45 539.333 1690.9 541.033 1690.9 542.9V560H1685.75V544.7C1685.75 542.733 1685.17 541.083 1684 539.75C1682.83 538.417 1681.25 537.75 1679.25 537.75C1677.95 537.75 1676.77 538.1 1675.7 538.8C1674.67 539.5 1673.83 540.45 1673.2 541.65C1672.6 542.817 1672.3 544.1 1672.3 545.5V560H1667.2V524.3H1672.1ZM1724.38 533.5V560H1719.23V555.85C1716.77 559.083 1713.55 560.7 1709.58 560.7C1707.12 560.7 1704.87 560.083 1702.83 558.85C1700.83 557.583 1699.25 555.867 1698.08 553.7C1696.92 551.533 1696.33 549.133 1696.33 546.5C1696.33 544 1696.92 541.7 1698.08 539.6C1699.25 537.5 1700.83 535.85 1702.83 534.65C1704.87 533.417 1707.12 532.8 1709.58 532.8C1713.58 532.8 1716.8 534.367 1719.23 537.5V533.5H1724.38ZM1710.58 555.95C1712.25 555.95 1713.75 555.533 1715.08 554.7C1716.45 553.833 1717.52 552.683 1718.28 551.25C1719.05 549.817 1719.43 548.25 1719.43 546.55C1719.43 544.983 1719.05 543.517 1718.28 542.15C1717.52 540.75 1716.47 539.633 1715.13 538.8C1713.8 537.967 1712.28 537.55 1710.58 537.55C1708.78 537.55 1707.18 537.967 1705.78 538.8C1704.42 539.633 1703.35 540.733 1702.58 542.1C1701.82 543.467 1701.43 544.917 1701.43 546.45C1701.43 548.183 1701.82 549.783 1702.58 551.25C1703.35 552.683 1704.42 553.833 1705.78 554.7C1707.18 555.533 1708.78 555.95 1710.58 555.95ZM1743.99 560.8C1741.46 560.8 1739.14 560.167 1737.04 558.9C1734.97 557.633 1733.34 555.917 1732.14 553.75C1730.94 551.55 1730.34 549.133 1730.34 546.5C1730.34 544 1730.94 541.7 1732.14 539.6C1733.34 537.467 1734.97 535.783 1737.04 534.55C1739.14 533.317 1741.46 532.7 1743.99 532.7C1746.52 532.7 1748.82 533.317 1750.89 534.55C1752.99 535.783 1754.64 537.45 1755.84 539.55C1757.04 541.65 1757.64 543.967 1757.64 546.5C1757.64 549.133 1757.04 551.55 1755.84 553.75C1754.64 555.917 1752.99 557.633 1750.89 558.9C1748.82 560.167 1746.52 560.8 1743.99 560.8ZM1743.99 556.05C1745.76 556.05 1747.27 555.617 1748.54 554.75C1749.84 553.85 1750.82 552.667 1751.49 551.2C1752.16 549.733 1752.49 548.15 1752.49 546.45C1752.49 544.917 1752.16 543.467 1751.49 542.1C1750.82 540.7 1749.84 539.583 1748.54 538.75C1747.27 537.883 1745.76 537.45 1743.99 537.45C1742.26 537.45 1740.74 537.883 1739.44 538.75C1738.14 539.583 1737.14 540.7 1736.44 542.1C1735.77 543.467 1735.44 544.917 1735.44 546.45C1735.44 548.15 1735.77 549.733 1736.44 551.2C1737.14 552.667 1738.14 553.85 1739.44 554.75C1740.74 555.617 1742.26 556.05 1743.99 556.05ZM1773.51 560.7C1771.54 560.7 1769.53 560.267 1767.46 559.4C1765.43 558.533 1763.73 557.283 1762.36 555.65L1765.66 552.8C1768.09 555.033 1770.79 556.15 1773.76 556.15C1775.46 556.15 1776.86 555.867 1777.96 555.3C1779.06 554.7 1779.63 553.817 1779.66 552.65C1779.66 551.817 1779.36 551.167 1778.76 550.7C1778.19 550.233 1777.43 549.883 1776.46 549.65C1775.53 549.417 1773.94 549.1 1771.71 548.7C1768.98 548.233 1766.84 547.433 1765.31 546.3C1763.78 545.167 1763.01 543.55 1763.01 541.45C1763.01 539.65 1763.48 538.1 1764.41 536.8C1765.38 535.5 1766.66 534.533 1768.26 533.9C1769.89 533.233 1771.66 532.9 1773.56 532.9C1775.59 532.9 1777.56 533.267 1779.46 534C1781.36 534.733 1782.89 535.917 1784.06 537.55L1780.86 540.25C1780.13 539.317 1779.14 538.583 1777.91 538.05C1776.68 537.517 1775.26 537.25 1773.66 537.25C1771.93 537.25 1770.46 537.583 1769.26 538.25C1768.09 538.883 1767.51 539.833 1767.51 541.1C1767.51 541.833 1767.74 542.417 1768.21 542.85C1768.68 543.25 1769.44 543.6 1770.51 543.9C1771.58 544.167 1773.19 544.483 1775.36 544.85C1777.99 545.283 1780.14 546.117 1781.81 547.35C1783.51 548.55 1784.36 550.233 1784.36 552.4C1784.36 554.1 1783.84 555.583 1782.81 556.85C1781.78 558.083 1780.43 559.033 1778.76 559.7C1777.09 560.367 1775.34 560.7 1773.51 560.7Z" fill="#6E718C"/>
<path d="M1090.77 560.75C1087.44 560.75 1084.44 559.95 1081.77 558.35C1079.14 556.717 1077.07 554.5 1075.57 551.7C1074.07 548.9 1073.32 545.783 1073.32 542.35C1073.32 539.017 1074.07 535.983 1075.57 533.25C1077.07 530.483 1079.14 528.3 1081.77 526.7C1084.44 525.1 1087.44 524.3 1090.77 524.3C1094.01 524.3 1096.92 525.067 1099.52 526.6C1102.12 528.1 1104.17 530.167 1105.67 532.8L1101.52 535.4C1100.59 533.667 1099.19 532.217 1097.32 531.05C1095.49 529.85 1093.34 529.25 1090.87 529.25C1088.67 529.25 1086.64 529.8 1084.77 530.9C1082.94 531.967 1081.47 533.483 1080.37 535.45C1079.27 537.417 1078.72 539.7 1078.72 542.3C1078.72 544.967 1079.27 547.317 1080.37 549.35C1081.47 551.383 1082.94 552.967 1084.77 554.1C1086.64 555.2 1088.67 555.75 1090.87 555.75C1093.17 555.75 1095.21 555.2 1096.97 554.1C1098.77 553 1100.29 551.533 1101.52 549.7L1105.72 552.3C1104.19 554.9 1102.11 556.967 1099.47 558.5C1096.87 560 1093.97 560.75 1090.77 560.75ZM1123.99 560.8C1121.46 560.8 1119.14 560.167 1117.04 558.9C1114.98 557.633 1113.34 555.917 1112.14 553.75C1110.94 551.55 1110.34 549.133 1110.34 546.5C1110.34 544 1110.94 541.7 1112.14 539.6C1113.34 537.467 1114.98 535.783 1117.04 534.55C1119.14 533.317 1121.46 532.7 1123.99 532.7C1126.53 532.7 1128.83 533.317 1130.89 534.55C1132.99 535.783 1134.64 537.45 1135.84 539.55C1137.04 541.65 1137.64 543.967 1137.64 546.5C1137.64 549.133 1137.04 551.55 1135.84 553.75C1134.64 555.917 1132.99 557.633 1130.89 558.9C1128.83 560.167 1126.53 560.8 1123.99 560.8ZM1123.99 556.05C1125.76 556.05 1127.28 555.617 1128.54 554.75C1129.84 553.85 1130.83 552.667 1131.49 551.2C1132.16 549.733 1132.49 548.15 1132.49 546.45C1132.49 544.917 1132.16 543.467 1131.49 542.1C1130.83 540.7 1129.84 539.583 1128.54 538.75C1127.28 537.883 1125.76 537.45 1123.99 537.45C1122.26 537.45 1120.74 537.883 1119.44 538.75C1118.14 539.583 1117.14 540.7 1116.44 542.1C1115.78 543.467 1115.44 544.917 1115.44 546.45C1115.44 548.15 1115.78 549.733 1116.44 551.2C1117.14 552.667 1118.14 553.85 1119.44 554.75C1120.74 555.617 1122.26 556.05 1123.99 556.05ZM1148.51 533.5V537.35C1149.38 535.917 1150.56 534.8 1152.06 534C1153.6 533.2 1155.36 532.8 1157.36 532.8C1159.16 532.8 1160.81 533.25 1162.31 534.15C1163.85 535.017 1165.06 536.233 1165.96 537.8C1166.86 539.333 1167.31 541.033 1167.31 542.9V560H1162.16V544.7C1162.16 542.733 1161.58 541.083 1160.41 539.75C1159.25 538.417 1157.66 537.75 1155.66 537.75C1154.36 537.75 1153.18 538.1 1152.11 538.8C1151.08 539.5 1150.25 540.45 1149.61 541.65C1149.01 542.817 1148.71 544.1 1148.71 545.5V560H1143.61V533.5H1148.51ZM1190.34 560.4C1189.24 560.533 1188.13 560.6 1186.99 560.6C1183.86 560.6 1181.63 559.9 1180.29 558.5C1178.96 557.1 1178.29 554.9 1178.29 551.9V538.1H1172.64V533.5H1178.29V528.2L1183.19 526.7V533.5H1190.34V538.1H1183.19V551.9C1183.19 554.667 1184.99 556.05 1188.59 556.05C1188.89 556.05 1189.48 556.017 1190.34 555.95V560.4ZM1207.9 560.75C1205.4 560.75 1203.11 560.133 1201.05 558.9C1199.01 557.633 1197.4 555.933 1196.2 553.8C1195.03 551.633 1194.45 549.233 1194.45 546.6C1194.45 544.033 1195.05 541.7 1196.25 539.6C1197.45 537.5 1199.08 535.85 1201.15 534.65C1203.21 533.417 1205.5 532.8 1208 532.8C1210.76 532.8 1213.11 533.383 1215.05 534.55C1217.01 535.683 1218.5 537.267 1219.5 539.3C1220.53 541.333 1221.05 543.667 1221.05 546.3C1221.05 546.9 1220.98 547.833 1220.85 549.1L1199.6 549.15C1199.93 550.55 1200.53 551.767 1201.4 552.8C1202.3 553.8 1203.33 554.567 1204.5 555.1C1205.66 555.633 1206.81 555.9 1207.95 555.9C1209.68 555.9 1211.23 555.583 1212.6 554.95C1214 554.283 1215.13 553.417 1216 552.35L1219.95 554.9C1218.78 556.867 1217.15 558.333 1215.05 559.3C1212.98 560.267 1210.6 560.75 1207.9 560.75ZM1216.1 544.7C1215.73 542.633 1214.81 540.933 1213.35 539.6C1211.91 538.267 1210.15 537.6 1208.05 537.6C1206.71 537.6 1205.43 537.9 1204.2 538.5C1203 539.067 1201.96 539.9 1201.1 541C1200.26 542.067 1199.76 543.3 1199.6 544.7H1216.1ZM1233.38 546.25L1223.23 533.5H1228.78L1236.13 542.75L1243.48 533.5H1248.93L1238.88 546.25L1249.68 560H1244.13L1236.13 549.75L1228.08 560H1222.58L1233.38 546.25ZM1270.79 560.4C1269.69 560.533 1268.57 560.6 1267.44 560.6C1264.3 560.6 1262.07 559.9 1260.74 558.5C1259.4 557.1 1258.74 554.9 1258.74 551.9V538.1H1253.09V533.5H1258.74V528.2L1263.64 526.7V533.5H1270.79V538.1H1263.64V551.9C1263.64 554.667 1265.44 556.05 1269.04 556.05C1269.34 556.05 1269.92 556.017 1270.79 555.95V560.4Z" fill="#5252FF"/>
<path d="M693.8 328H721.7L761.12 414.04L802.34 328H830.24V454H805.94V367.78L774.08 438.88H748.16L718.1 367.78V454H693.8V328ZM856.687 358.6H880.987V454H856.687V358.6ZM856.327 323.14H881.347V345.64H856.327V323.14ZM908.267 358.6H931.847V369.76C935.087 364.96 939.107 361.48 943.907 359.32C948.827 357.16 954.167 356.08 959.927 356.08C967.007 356.08 973.247 357.7 978.647 360.94C984.047 364.18 988.187 368.68 991.067 374.44C994.067 380.08 995.567 386.32 995.567 393.16V454H971.267V401.44C971.267 396.88 970.547 393.04 969.107 389.92C967.667 386.68 965.507 384.28 962.627 382.72C959.867 381.04 956.567 380.2 952.727 380.2C949.007 380.2 945.587 381.04 942.467 382.72C939.467 384.28 937.067 386.68 935.267 389.92C933.467 393.16 932.567 397.06 932.567 401.62V454H908.267V358.6ZM1062.46 456.52C1053.34 456.52 1045 454.3 1037.44 449.86C1030 445.42 1024.12 439.36 1019.8 431.68C1015.6 423.88 1013.5 415.24 1013.5 405.76C1013.5 396.52 1015.66 388.12 1019.98 380.56C1024.3 373 1030.24 367.06 1037.8 362.74C1045.36 358.3 1053.7 356.08 1062.82 356.08C1074.22 356.08 1083.64 358.54 1091.08 363.46C1098.52 368.38 1103.8 375.34 1106.92 384.34C1110.04 393.22 1110.94 403.66 1109.62 415.66L1037.08 416.02C1038.28 419.98 1040.26 423.34 1043.02 426.1C1045.9 428.74 1049.08 430.72 1052.56 432.04C1056.04 433.36 1059.34 434.02 1062.46 434.02C1065.82 434.02 1069 433.72 1072 433.12C1075 432.4 1077.7 431.32 1080.1 429.88C1082.62 428.44 1084.84 426.7 1086.76 424.66L1087.66 423.58L1106.2 435.82C1102.12 442.78 1096.36 448 1088.92 451.48C1081.48 454.84 1072.66 456.52 1062.46 456.52ZM1087.48 396.04C1086.52 392.32 1084.78 389.14 1082.26 386.5C1079.74 383.86 1076.74 381.88 1073.26 380.56C1069.9 379.24 1066.42 378.58 1062.82 378.58C1059.34 378.58 1055.8 379.3 1052.2 380.74C1048.6 382.18 1045.48 384.22 1042.84 386.86C1040.2 389.5 1038.52 392.56 1037.8 396.04H1087.48ZM1189.29 456.7C1177.29 456.7 1166.49 453.82 1156.89 448.06C1147.41 442.18 1139.97 434.2 1134.57 424.12C1129.17 414.04 1126.47 402.82 1126.47 390.46C1126.47 378.46 1129.17 367.54 1134.57 357.7C1139.97 347.74 1147.41 339.88 1156.89 334.12C1166.49 328.36 1177.29 325.48 1189.29 325.48C1200.93 325.48 1211.43 328.24 1220.79 333.76C1230.27 339.28 1237.71 346.72 1243.11 356.08L1222.41 369.04C1219.53 363.64 1215.15 359.08 1209.27 355.36C1203.51 351.64 1196.85 349.78 1189.29 349.78C1181.61 349.78 1175.01 351.58 1169.49 355.18C1163.97 358.78 1159.77 363.7 1156.89 369.94C1154.01 376.06 1152.57 382.9 1152.57 390.46C1152.57 398.26 1154.01 405.34 1156.89 411.7C1159.77 418.06 1163.97 423.1 1169.49 426.82C1175.01 430.54 1181.61 432.4 1189.29 432.4C1194.09 432.4 1198.53 431.56 1202.61 429.88C1206.81 428.2 1210.47 425.92 1213.6 423.04C1216.83 420.16 1219.71 416.92 1222.23 413.32L1243.29 426.28C1237.77 435.64 1230.27 443.08 1220.79 448.6C1211.31 454 1200.81 456.7 1189.29 456.7ZM1308.03 456.88C1298.79 456.88 1290.39 454.6 1282.83 450.04C1275.27 445.48 1269.33 439.3 1265.01 431.5C1260.69 423.58 1258.53 414.88 1258.53 405.4C1258.53 396.4 1260.69 388.12 1265.01 380.56C1269.45 372.88 1275.39 366.82 1282.83 362.38C1290.39 357.94 1298.79 355.72 1308.03 355.72C1317.27 355.72 1325.61 357.94 1333.05 362.38C1340.61 366.82 1346.55 372.82 1350.87 380.38C1355.19 387.94 1357.35 396.28 1357.35 405.4C1357.35 414.88 1355.19 423.58 1350.87 431.5C1346.55 439.3 1340.61 445.48 1333.05 450.04C1325.61 454.6 1317.27 456.88 1308.03 456.88ZM1308.03 434.38C1313.43 434.38 1317.99 433.06 1321.71 430.42C1325.43 427.66 1328.25 424.12 1330.17 419.8C1332.09 415.36 1333.05 410.56 1333.05 405.4C1333.05 400.72 1332.09 396.34 1330.17 392.26C1328.25 388.06 1325.37 384.7 1321.53 382.18C1317.81 379.54 1313.31 378.22 1308.03 378.22C1302.75 378.22 1298.19 379.54 1294.35 382.18C1290.51 384.7 1287.63 388.06 1285.71 392.26C1283.79 396.46 1282.83 400.84 1282.83 405.4C1282.83 410.56 1283.79 415.36 1285.71 419.8C1287.63 424.12 1290.45 427.66 1294.17 430.42C1298.01 433.06 1302.63 434.38 1308.03 434.38ZM1378.12 358.6H1401.7V369.76C1404.94 364.96 1408.96 361.48 1413.76 359.32C1418.68 357.16 1424.02 356.08 1429.78 356.08C1436.86 356.08 1443.1 357.7 1448.5 360.94C1453.9 364.18 1458.04 368.68 1460.92 374.44C1463.92 380.08 1465.42 386.32 1465.42 393.16V454H1441.12V401.44C1441.12 396.88 1440.4 393.04 1438.96 389.92C1437.52 386.68 1435.36 384.28 1432.48 382.72C1429.72 381.04 1426.42 380.2 1422.58 380.2C1418.86 380.2 1415.44 381.04 1412.32 382.72C1409.32 384.28 1406.92 386.68 1405.12 389.92C1403.32 393.16 1402.42 397.06 1402.42 401.62V454H1378.12V358.6ZM1547.07 455.08C1536.15 456.28 1527.27 455.98 1520.43 454.18C1513.71 452.5 1508.73 449.26 1505.49 444.46C1502.37 439.54 1500.81 433 1500.81 424.84V381.1H1483.35V358.6H1500.81V340.42L1524.03 333.4V358.6H1547.07V381.1H1524.03V424.84C1524.03 427.96 1524.93 430.24 1526.73 431.68C1528.65 433 1531.17 433.78 1534.29 434.02C1537.53 434.26 1541.79 434.26 1547.07 434.02V455.08ZM1610.44 456.52C1601.32 456.52 1592.98 454.3 1585.42 449.86C1577.98 445.42 1572.1 439.36 1567.78 431.68C1563.58 423.88 1561.48 415.24 1561.48 405.76C1561.48 396.52 1563.64 388.12 1567.96 380.56C1572.28 373 1578.22 367.06 1585.78 362.74C1593.34 358.3 1601.68 356.08 1610.8 356.08C1622.2 356.08 1631.62 358.54 1639.06 363.46C1646.5 368.38 1651.78 375.34 1654.9 384.34C1658.02 393.22 1658.92 403.66 1657.6 415.66L1585.06 416.02C1586.26 419.98 1588.24 423.34 1591 426.1C1593.88 428.74 1597.06 430.72 1600.54 432.04C1604.02 433.36 1607.32 434.02 1610.44 434.02C1613.8 434.02 1616.98 433.72 1619.98 433.12C1622.98 432.4 1625.68 431.32 1628.08 429.88C1630.6 428.44 1632.82 426.7 1634.74 424.66L1635.64 423.58L1654.18 435.82C1650.1 442.78 1644.34 448 1636.9 451.48C1629.46 454.84 1620.64 456.52 1610.44 456.52ZM1635.46 396.04C1634.5 392.32 1632.76 389.14 1630.24 386.5C1627.72 383.86 1624.72 381.88 1621.24 380.56C1617.88 379.24 1614.4 378.58 1610.8 378.58C1607.32 378.58 1603.78 379.3 1600.18 380.74C1596.58 382.18 1593.46 384.22 1590.82 386.86C1588.18 389.5 1586.5 392.56 1585.78 396.04H1635.46ZM1707.4 404.68L1673.2 358.6H1699.84L1720.54 387.94L1741.06 358.6H1767.52L1733.5 404.5L1770.22 454H1743.4L1720.36 421.24L1697.32 454H1670.86L1707.4 404.68ZM1846.5 455.08C1835.58 456.28 1826.7 455.98 1819.86 454.18C1813.14 452.5 1808.16 449.26 1804.92 444.46C1801.8 439.54 1800.24 433 1800.24 424.84V381.1H1782.78V358.6H1800.24V340.42L1823.46 333.4V358.6H1846.5V381.1H1823.46V424.84C1823.46 427.96 1824.36 430.24 1826.16 431.68C1828.08 433 1830.6 433.78 1833.72 434.02C1836.96 434.26 1841.22 434.26 1846.5 434.02V455.08Z" fill="#3F3F51"/>
<path fill-rule="evenodd" clip-rule="evenodd" d="M612.804 477.69C611.716 507.499 604.023 536.221 589.57 564.633C567.735 607.484 532.302 642.106 486.379 665.394L475.733 670.75L472.547 664.385C470.838 660.892 467.574 656.079 465.476 653.595C463.3 651.188 461.513 649.092 461.513 648.859C461.513 648.704 462.912 648.161 464.699 647.617C469.827 646.065 485.524 638.845 494.227 634.032C539.762 608.648 576.749 568.049 597.807 520.152C605.111 503.773 609.54 487.471 611.871 468.374C612.882 460.534 613.27 464.493 612.804 477.69Z" fill="url(#paint1_linear_522_1352)"/>
<path d="M322.033 105.774C346.977 114.08 370.366 134.496 382.332 158.483C390.724 175.173 394.998 197.84 393.211 216.005C391.579 232.463 388.16 244.573 381.011 258.778C369.2 282.455 352.882 301.707 316.594 334.932C280.539 368.001 260.103 389.892 246.971 409.377C237.879 422.806 227.467 445.396 222.261 463.095C205.865 518.289 213.869 572.24 244.406 611.443C249.146 617.498 258.704 627.512 258.704 626.347C258.704 626.037 257.694 623.785 256.451 621.301C253.809 616.023 403.079 691.788 374.872 690.779C277.198 687.285 193.044 628.676 154.658 537.541C145.1 514.796 138.962 489.955 136.631 464.803C135.31 450.364 136.164 420.4 138.262 406.505C146.188 354.028 169.189 307.296 205.477 269.569C219.386 255.13 234.072 243.253 261.812 224.079C280.151 211.348 288.62 204.594 296.469 196.366C313.486 178.589 321.645 160.424 321.723 140.163C321.723 127.121 317.993 115.71 310.688 106.472L307.425 102.358L311.232 102.902C313.33 103.212 318.148 104.532 322.033 105.774Z" fill="url(#paint2_linear_522_1352)"/>
<path fill-rule="evenodd" clip-rule="evenodd" d="M258.704 626.347C258.704 626.037 257.694 623.785 256.451 621.301C253.809 616.023 250.856 606.94 248.913 597.858C246.66 587.611 246.893 560.829 249.224 549.806C254.897 523.801 266.63 501.521 285.512 480.795C293.283 472.256 306.803 461.388 322.033 451.296C333.844 443.533 338.351 439.962 344.645 433.752C354.902 423.428 358.943 417.217 365.315 401.304C368.19 394.084 371.997 385.39 373.785 381.974C377.437 374.988 384.508 364.042 387.461 361.015L389.403 358.919L387.849 355.969C380.623 341.84 381.011 321.58 388.782 304.812C391.734 298.369 394.532 294.099 399.272 288.743L402.535 285.094L406.576 286.336C420.718 290.451 432.995 302.716 438.513 318.242C440.144 322.899 442.864 335.087 442.864 337.881C442.864 338.58 443.641 338.658 455.219 340.133C483.581 343.704 508.058 355.192 531.836 376.074C542.248 385.157 546.211 389.504 556.002 402.39C563.306 411.861 565.56 416.053 565.637 419.701C565.637 424.126 561.286 427.852 556.157 427.852C553.593 427.852 553.593 427.852 553.826 431.268C554.215 435.848 551.884 440.273 545.823 446.173C533.39 458.36 515.129 465.735 493.139 467.443C480.395 468.374 477.209 469.228 473.169 472.644C467.652 477.379 466.564 480.406 466.564 491.119C466.564 501.909 467.186 504.238 475.5 525.664C483.348 546.002 484.358 550.582 484.358 566.03C484.436 576.743 484.125 580.003 482.649 585.67C479.696 597.625 473.246 609.347 466.02 616.178C462.446 619.594 455.996 624.407 455.608 624.018C455.452 623.863 455.841 621.301 456.462 618.351C457.084 615.402 457.628 609.269 457.628 604.689C457.628 591.88 455.064 581.245 449.236 569.523C439.056 549.107 418.387 531.486 394.687 522.947C389.559 521.084 376.97 517.901 374.872 517.901C374.484 517.901 377.592 519.686 381.866 521.86C396.397 529.235 403.779 534.203 412.637 542.587C423.904 553.144 433.073 568.281 436.803 582.332C438.202 587.766 438.513 591.026 438.513 600.575C438.59 612.374 437.891 617.032 434.938 626.114C433.306 631.083 427.401 643.425 424.914 646.919C423.282 649.092 422.972 650.257 424.137 649.48C425.536 648.704 437.813 650.49 442.475 652.275C448.614 654.526 455.918 661.668 459.182 668.654C461.824 674.321 462.057 675.874 460.192 676.65C436.725 686.198 403.079 691.788 374.872 690.778C277.198 687.285 258.704 627.512 258.704 626.347Z" fill="black"/>
<path d="M488.315 381.176C480.51 384.863 478.131 392.399 482.294 399.772C487.497 408.619 497.235 411.486 506.75 406.898C513.664 403.54 514.853 400.591 512.028 394.529C506.899 383.388 496.195 377.408 488.315 381.176Z" fill="white"/>
</g>
<defs>
<linearGradient id="paint0_linear_522_1352" x1="0" y1="0" x2="1933.49" y2="980.933" gradientUnits="userSpaceOnUse">
<stop stop-color="#CEC1D2"/>
<stop offset="0.0827179" stop-color="#D9DAE8"/>
<stop offset="0.310548" stop-color="#F2F2F2"/>
<stop offset="0.86003" stop-color="#FDFCF8"/>
<stop offset="0.916607" stop-color="#F9FAED"/>
<stop offset="1" stop-color="#FFEDDF"/>
</linearGradient>
<linearGradient id="paint1_linear_522_1352" x1="537.256" y1="464.367" x2="537.256" y2="670.75" gradientUnits="userSpaceOnUse">
<stop stop-color="#B9B9B9"/>
<stop offset="1"/>
</linearGradient>
<linearGradient id="paint2_linear_522_1352" x1="13016.6" y1="102.358" x2="13016.6" y2="59808.9" gradientUnits="userSpaceOnUse">
<stop/>
<stop offset="1" stop-color="#757575"/>
</linearGradient>
<clipPath id="clip0_522_1352">
<rect width="2025" height="768" fill="white"/>
</clipPath>
</defs>
</svg>
